<svg width="349" height="200" viewBox="0 0 349 200" fill="none" xmlns="http://www.w3.org/2000/svg">
<path d="M181.245 199.019V0H228.522V199.019H181.245ZM0 99.5575C0 83.335 4.81436 67.4768 13.8343 53.9883C22.8542 40.4998 35.6745 29.9868 50.6741 23.7787C65.6736 17.5707 82.1787 15.9463 98.1022 19.1112C114.026 22.276 128.652 30.0879 140.132 41.5589C151.613 53.03 159.431 67.645 162.598 83.5557C165.765 99.4665 164.14 115.958 157.927 130.946C151.714 145.934 141.192 158.744 127.693 167.757C114.194 176.769 98.3231 181.58 82.0877 181.58C60.3333 181.58 39.4685 172.951 24.0768 157.59C8.68513 142.228 0.025414 121.39 0 99.6533L0 99.5575ZM57.2504 99.4617C57.2504 104.389 58.7127 109.206 61.4524 113.303C64.1921 117.4 68.0861 120.593 72.6421 122.479C77.198 124.364 82.2112 124.858 87.0478 123.896C91.8844 122.935 96.327 120.562 99.814 117.078C103.301 113.594 105.676 109.155 106.638 104.322C107.6 99.4893 107.106 94.4801 105.219 89.9278C103.332 85.3754 100.136 81.4845 96.0357 78.747C91.9355 76.0095 87.1149 74.5483 82.1836 74.5483C75.5709 74.5483 69.229 77.1731 64.5532 81.8453C59.8773 86.5174 57.2504 92.8542 57.2504 99.4617ZM316.172 149.288L298.143 131.37L280.211 149.384H248.373V117.859L266.593 99.6533L248.373 81.5432V49.635H279.731L298.143 68.0325L316.651 49.635H348.01V81.5432L329.789 99.7491L348.01 117.955V149.288H316.172Z" fill="black"/>
</svg>
